<svg role="img" viewBox="0 0 24 24" xmlns="http://www.w3.org/2000/svg"><title>Amazon Web Services</title><path d="M6.763 10.036c0 .296.032.535.088.71.064.176.144.368.256.576.04.063.056.127.056.183 0 .08-.048.16-.152.24l-.503.335c-.072.048-.144.072-.208.072-.08 0-.16-.04-.239-.112-.112-.12-.207-.248-.279-.383-.072-.135-.144-.287-.207-.455-.527.623-1.191.934-1.975.934-.559 0-1.007-.16-1.335-.48-.328-.32-.488-.744-.488-1.279 0-.568.2-1.023.6-1.375.4-.353.936-.527 1.615-.527.224 0 .455.016.695.056.24.04.487.088.743.152v-.504c0-.527-.111-.895-.327-1.111-.223-.216-.6-.327-1.127-.327-.24 0-.487.032-.743.088-.255.056-.504.127-.735.224-.112.048-.191.08-.239.096-.048.016-.08.024-.104.024-.088 0-.135-.064-.135-.2v-.319c0-.104.016-.183.056-.231.04-.048.112-.096.207-.144.231-.12.511-.215.831-.295.32-.08.663-.12 1.015-.12.775 0 1.343.176 1.711.535.36.36.543.9.543 1.631v2.151zm-2.735 1.027c.216 0 .44-.04.671-.12.231-.08.44-.207.615-.375.104-.104.183-.216.231-.344.048-.127.08-.279.08-.455v-.215c-.191-.048-.4-.088-.615-.112-.216-.024-.424-.04-.624-.04-.447 0-.775.088-1.007.272-.231.183-.343.439-.343.775 0 .319.08.559.255.727.168.16.423.247.737.287zm5.423.719c-.112 0-.191-.016-.231-.056-.048-.04-.088-.127-.135-.255L7.692 5.747c-.048-.159-.072-.263-.072-.319 0-.127.064-.2.191-.2h.783c.12 0 .2.016.24.056.048.04.08.127.127.255l1.648 6.503 1.527-6.503c.04-.159.08-.215.127-.255.048-.04.135-.056.247-.056h.639c.112 0 .2.016.247.056.048.04.088.127.127.255l1.551 6.583 1.695-6.583c.048-.159.088-.215.135-.255.048-.04.127-.056.239-.056h.743c.127 0 .2.064.2.2 0 .04-.008.08-.016.127-.008.048-.024.112-.048.2L14.359 11.26c-.048.159-.088.215-.135.255-.048.04-.127.056-.231.056h-.687c-.112 0-.2-.016-.247-.056-.048-.04-.088-.127-.127-.255L11.415 5.115 9.847 11.188c-.04.159-.08.215-.127.255-.048.04-.135.056-.247.056h-.689zm8.839.231c-.336 0-.671-.04-.999-.12-.328-.08-.583-.183-.758-.295-.112-.072-.191-.151-.231-.224-.04-.072-.056-.151-.056-.231v-.335c0-.135.048-.2.135-.2.048 0 .096.008.151.024.056.016.135.048.231.088.328.135.679.2 1.055.2.279 0 .495-.048.647-.151.151-.104.231-.248.231-.439 0-.127-.04-.231-.127-.319-.088-.088-.247-.168-.479-.248l-.687-.215c-.351-.112-.607-.279-.775-.504-.168-.224-.247-.487-.247-.783 0-.224.048-.424.151-.6.104-.176.239-.327.415-.447.176-.12.375-.207.6-.263.224-.056.456-.088.695-.088.151 0 .303.008.447.032.151.024.287.056.415.088.127.032.247.072.359.112.112.04.2.08.263.127.104.08.183.16.231.255.048.096.072.2.072.32v.303c0 .135-.048.207-.135.207-.056 0-.151-.024-.279-.08-.375-.183-.8-.279-1.271-.279-.287 0-.511.04-.671.127-.16.088-.239.223-.239.415 0 .127.047.239.143.319.096.08.271.168.527.248l.671.215c.351.112.6.271.758.479.159.207.231.455.231.743 0 .231-.048.439-.143.624-.096.183-.231.343-.407.463-.176.12-.391.215-.647.279-.247.056-.518.088-.807.088z"/></svg>